<?xml version='1.0' encoding='UTF-8' standalone='no'?>
<!-- Created with Fritzing (https://fritzing.org/) -->
<svg xmlns="http://www.w3.org/2000/svg" version="1.2" x="0in" width="1.37006in"  height="3.97949in" baseProfile="tiny" viewBox="0 0 98.644 286.523" y="0in" xmlns:svg="http://www.w3.org/2000/svg">
 <g partID="57820">
  <g id="board" >
   <rect fill="none" id="boardoutline" stroke="black" x="0.288" width="98.068"  height="285.945" y="0.288" stroke-width="0.5" fill-opacity="0.5"/>
  </g>
 </g>
 <g partID="61511">
  <g transform="translate(95.5867,247.832)">
   <g transform="matrix(0,1,-1,0,0,0)">
    <g id="copper1" >
     <!-- <rect width="55" x="10" y="15.5" fill="none" height="55" stroke="rgb(255, 191, 0)" stroke-width="20" />  -->
     <circle fill="none" stroke="black" id="connector0pin" r="1.98" cy="3.096"  cx="2.7" stroke-width="1.44"/>
     <circle fill="none" stroke="black" id="connector1pin" r="1.98" cy="3.096"  cx="31.5" stroke-width="1.44"/>
    </g>
   </g>
  </g>
 </g>
 <g partID="61551">
  <g transform="translate(2.86059,281.893)">
   <g transform="matrix(0,-1,1,0,0,0)">
    <g id="copper1" >
     <!-- <rect width="55" x="10" y="15.5" fill="none" height="55" stroke="rgb(255, 191, 0)" stroke-width="20" />  -->
     <circle fill="none" stroke="black" id="connector0pin" r="1.98" cy="3.096"  cx="2.7" stroke-width="1.44"/>
     <circle fill="none" stroke="black" id="connector1pin" r="1.98" cy="3.096"  cx="31.5" stroke-width="1.44"/>
    </g>
   </g>
  </g>
 </g>
 <g partID="61361">
  <g transform="translate(2.86059,231.493)">
   <g transform="matrix(0,-1,1,0,0,0)">
    <g id="copper1" >
     <!-- <rect width="55" x="10" y="15.5" fill="none" height="55" stroke="rgb(255, 191, 0)" stroke-width="20" />  -->
     <circle fill="none" stroke="black" id="connector0pin" r="1.98" cy="3.096"  cx="2.7" stroke-width="1.44"/>
     <circle fill="none" stroke="black" id="connector1pin" r="1.98" cy="3.096"  cx="31.5" stroke-width="1.44"/>
    </g>
   </g>
  </g>
 </g>
 <g partID="61211">
  <g transform="translate(95.5867,197.432)">
   <g transform="matrix(0,1,-1,0,0,0)">
    <g id="copper1" >
     <!-- <rect width="55" x="10" y="15.5" fill="none" height="55" stroke="rgb(255, 191, 0)" stroke-width="20" />  -->
     <circle fill="none" stroke="black" id="connector0pin" r="1.98" cy="3.096"  cx="2.7" stroke-width="1.44"/>
     <circle fill="none" stroke="black" id="connector1pin" r="1.98" cy="3.096"  cx="31.5" stroke-width="1.44"/>
    </g>
   </g>
  </g>
 </g>
 <g partID="61061">
  <g transform="translate(2.86059,181.093)">
   <g transform="matrix(0,-1,1,0,0,0)">
    <g id="copper1" >
     <!-- <rect width="55" x="10" y="15.5" fill="none" height="55" stroke="rgb(255, 191, 0)" stroke-width="20" />  -->
     <circle fill="none" stroke="black" id="connector0pin" r="1.98" cy="3.096"  cx="2.7" stroke-width="1.44"/>
     <circle fill="none" stroke="black" id="connector1pin" r="1.98" cy="3.096"  cx="31.5" stroke-width="1.44"/>
    </g>
   </g>
  </g>
 </g>
 <g partID="60871">
  <g transform="translate(95.5867,147.032)">
   <g transform="matrix(0,1,-1,0,0,0)">
    <g id="copper1" >
     <!-- <rect width="55" x="10" y="15.5" fill="none" height="55" stroke="rgb(255, 191, 0)" stroke-width="20" />  -->
     <circle fill="none" stroke="black" id="connector0pin" r="1.98" cy="3.096"  cx="2.7" stroke-width="1.44"/>
     <circle fill="none" stroke="black" id="connector1pin" r="1.98" cy="3.096"  cx="31.5" stroke-width="1.44"/>
    </g>
   </g>
  </g>
 </g>
 <g partID="60711">
  <g transform="translate(2.86059,130.693)">
   <g transform="matrix(0,-1,1,0,0,0)">
    <g id="copper1" >
     <!-- <rect width="55" x="10" y="15.5" fill="none" height="55" stroke="rgb(255, 191, 0)" stroke-width="20" />  -->
     <circle fill="none" stroke="black" id="connector0pin" r="1.98" cy="3.096"  cx="2.7" stroke-width="1.44"/>
     <circle fill="none" stroke="black" id="connector1pin" r="1.98" cy="3.096"  cx="31.5" stroke-width="1.44"/>
    </g>
   </g>
  </g>
 </g>
 <g partID="60621">
  <g transform="translate(95.5867,96.6323)">
   <g transform="matrix(0,1,-1,0,0,0)">
    <g id="copper1" >
     <!-- <rect width="55" x="10" y="15.5" fill="none" height="55" stroke="rgb(255, 191, 0)" stroke-width="20" />  -->
     <circle fill="none" stroke="black" id="connector0pin" r="1.98" cy="3.096"  cx="2.7" stroke-width="1.44"/>
     <circle fill="none" stroke="black" id="connector1pin" r="1.98" cy="3.096"  cx="31.5" stroke-width="1.44"/>
    </g>
   </g>
  </g>
 </g>
 <g partID="60061">
  <g transform="translate(53.8459,74.7101)">
   <g id="copper1" >
    <!-- <rect width="55" x="10" y="15.5" fill="none" height="55" stroke="rgb(255, 191, 0)" stroke-width="20" />  -->
    <circle fill="none" stroke="black" id="connector0pin" r="1.98" cy="3.096"  cx="2.7" stroke-width="1.44"/>
    <circle fill="none" stroke="black" id="connector1pin" r="1.98" cy="3.096"  cx="31.5" stroke-width="1.44"/>
   </g>
  </g>
 </g>
 <g partID="60031">
  <g transform="translate(10.4566,74.4973)">
   <g id="copper1" >
    <!-- <rect width="55" x="10" y="15.5" fill="none" height="55" stroke="rgb(255, 191, 0)" stroke-width="20" />  -->
    <circle fill="none" stroke="black" id="connector0pin" r="1.98" cy="3.096"  cx="2.7" stroke-width="1.44"/>
    <circle fill="none" stroke="black" id="connector1pin" r="1.98" cy="3.096"  cx="31.5" stroke-width="1.44"/>
   </g>
  </g>
 </g>
 <g partID="67581">
  <g transform="translate(88.1284,240.913)">
   <g transform="matrix(0,1,-1,0,0,0)">
    <g id="copper1" >
     <circle fill="none" id="connector3pad" stroke="black" r="2.38039" cy="10.2093"  connectorname="4" cx="3.06" stroke-width="1.35921"/>
     <circle fill="none" id="connector1pad" stroke="black" r="2.38039" cy="24.3825"  connectorname="2" cx="3.06" stroke-width="1.35921"/>
     <circle fill="none" id="connector0pad" stroke="black" r="2.38039" cy="24.3825"  connectorname="1" cx="38.4931" stroke-width="1.35921"/>
     <circle fill="none" id="connector2pad" stroke="black" r="2.38039" cy="10.2093"  connectorname="3" cx="38.4931" stroke-width="1.35921"/>
     <g id="copper0" >
      <circle fill="none" id="connector3pad" stroke="black" r="2.38039" cy="10.2093"  connectorname="4" cx="3.06" stroke-width="1.35921"/>
      <circle fill="none" id="connector1pad" stroke="black" r="2.38039" cy="24.3825"  connectorname="2" cx="3.06" stroke-width="1.35921"/>
      <circle fill="none" id="connector0pad" stroke="black" r="2.38039" cy="24.3825"  connectorname="1" cx="38.4931" stroke-width="1.35921"/>
      <circle fill="none" id="connector2pad" stroke="black" r="2.38039" cy="10.2093"  connectorname="3" cx="38.4931" stroke-width="1.35921"/>
     </g>
    </g>
   </g>
  </g>
 </g>
 <g partID="67571">
  <g transform="translate(44.7391,240.7)">
   <g transform="matrix(0,1,-1,0,0,0)">
    <g id="copper1" >
     <circle fill="none" id="connector3pad" stroke="black" r="2.38039" cy="10.2093"  connectorname="4" cx="3.06" stroke-width="1.35921"/>
     <circle fill="none" id="connector1pad" stroke="black" r="2.38039" cy="24.3825"  connectorname="2" cx="3.06" stroke-width="1.35921"/>
     <circle fill="none" id="connector0pad" stroke="black" r="2.38039" cy="24.3825"  connectorname="1" cx="38.4931" stroke-width="1.35921"/>
     <circle fill="none" id="connector2pad" stroke="black" r="2.38039" cy="10.2093"  connectorname="3" cx="38.4931" stroke-width="1.35921"/>
     <g id="copper0" >
      <circle fill="none" id="connector3pad" stroke="black" r="2.38039" cy="10.2093"  connectorname="4" cx="3.06" stroke-width="1.35921"/>
      <circle fill="none" id="connector1pad" stroke="black" r="2.38039" cy="24.3825"  connectorname="2" cx="3.06" stroke-width="1.35921"/>
      <circle fill="none" id="connector0pad" stroke="black" r="2.38039" cy="24.3825"  connectorname="1" cx="38.4931" stroke-width="1.35921"/>
      <circle fill="none" id="connector2pad" stroke="black" r="2.38039" cy="10.2093"  connectorname="3" cx="38.4931" stroke-width="1.35921"/>
     </g>
    </g>
   </g>
  </g>
 </g>
 <g partID="66891">
  <g transform="translate(44.7391,190.3)">
   <g transform="matrix(0,1,-1,0,0,0)">
    <g id="copper1" >
     <circle fill="none" id="connector3pad" stroke="black" r="2.38039" cy="10.2093"  connectorname="4" cx="3.06" stroke-width="1.35921"/>
     <circle fill="none" id="connector1pad" stroke="black" r="2.38039" cy="24.3825"  connectorname="2" cx="3.06" stroke-width="1.35921"/>
     <circle fill="none" id="connector0pad" stroke="black" r="2.38039" cy="24.3825"  connectorname="1" cx="38.4931" stroke-width="1.35921"/>
     <circle fill="none" id="connector2pad" stroke="black" r="2.38039" cy="10.2093"  connectorname="3" cx="38.4931" stroke-width="1.35921"/>
     <g id="copper0" >
      <circle fill="none" id="connector3pad" stroke="black" r="2.38039" cy="10.2093"  connectorname="4" cx="3.06" stroke-width="1.35921"/>
      <circle fill="none" id="connector1pad" stroke="black" r="2.38039" cy="24.3825"  connectorname="2" cx="3.06" stroke-width="1.35921"/>
      <circle fill="none" id="connector0pad" stroke="black" r="2.38039" cy="24.3825"  connectorname="1" cx="38.4931" stroke-width="1.35921"/>
      <circle fill="none" id="connector2pad" stroke="black" r="2.38039" cy="10.2093"  connectorname="3" cx="38.4931" stroke-width="1.35921"/>
     </g>
    </g>
   </g>
  </g>
 </g>
 <g partID="66901">
  <g transform="translate(88.1284,190.513)">
   <g transform="matrix(0,1,-1,0,0,0)">
    <g id="copper1" >
     <circle fill="none" id="connector3pad" stroke="black" r="2.38039" cy="10.2093"  connectorname="4" cx="3.06" stroke-width="1.35921"/>
     <circle fill="none" id="connector1pad" stroke="black" r="2.38039" cy="24.3825"  connectorname="2" cx="3.06" stroke-width="1.35921"/>
     <circle fill="none" id="connector0pad" stroke="black" r="2.38039" cy="24.3825"  connectorname="1" cx="38.4931" stroke-width="1.35921"/>
     <circle fill="none" id="connector2pad" stroke="black" r="2.38039" cy="10.2093"  connectorname="3" cx="38.4931" stroke-width="1.35921"/>
     <g id="copper0" >
      <circle fill="none" id="connector3pad" stroke="black" r="2.38039" cy="10.2093"  connectorname="4" cx="3.06" stroke-width="1.35921"/>
      <circle fill="none" id="connector1pad" stroke="black" r="2.38039" cy="24.3825"  connectorname="2" cx="3.06" stroke-width="1.35921"/>
      <circle fill="none" id="connector0pad" stroke="black" r="2.38039" cy="24.3825"  connectorname="1" cx="38.4931" stroke-width="1.35921"/>
      <circle fill="none" id="connector2pad" stroke="black" r="2.38039" cy="10.2093"  connectorname="3" cx="38.4931" stroke-width="1.35921"/>
     </g>
    </g>
   </g>
  </g>
 </g>
 <g partID="66641">
  <g transform="translate(88.1284,140.113)">
   <g transform="matrix(0,1,-1,0,0,0)">
    <g id="copper1" >
     <circle fill="none" id="connector3pad" stroke="black" r="2.38039" cy="10.2093"  connectorname="4" cx="3.06" stroke-width="1.35921"/>
     <circle fill="none" id="connector1pad" stroke="black" r="2.38039" cy="24.3825"  connectorname="2" cx="3.06" stroke-width="1.35921"/>
     <circle fill="none" id="connector0pad" stroke="black" r="2.38039" cy="24.3825"  connectorname="1" cx="38.4931" stroke-width="1.35921"/>
     <circle fill="none" id="connector2pad" stroke="black" r="2.38039" cy="10.2093"  connectorname="3" cx="38.4931" stroke-width="1.35921"/>
     <g id="copper0" >
      <circle fill="none" id="connector3pad" stroke="black" r="2.38039" cy="10.2093"  connectorname="4" cx="3.06" stroke-width="1.35921"/>
      <circle fill="none" id="connector1pad" stroke="black" r="2.38039" cy="24.3825"  connectorname="2" cx="3.06" stroke-width="1.35921"/>
      <circle fill="none" id="connector0pad" stroke="black" r="2.38039" cy="24.3825"  connectorname="1" cx="38.4931" stroke-width="1.35921"/>
      <circle fill="none" id="connector2pad" stroke="black" r="2.38039" cy="10.2093"  connectorname="3" cx="38.4931" stroke-width="1.35921"/>
     </g>
    </g>
   </g>
  </g>
 </g>
 <g partID="66631">
  <g transform="translate(44.7391,139.9)">
   <g transform="matrix(0,1,-1,0,0,0)">
    <g id="copper1" >
     <circle fill="none" id="connector3pad" stroke="black" r="2.38039" cy="10.2093"  connectorname="4" cx="3.06" stroke-width="1.35921"/>
     <circle fill="none" id="connector1pad" stroke="black" r="2.38039" cy="24.3825"  connectorname="2" cx="3.06" stroke-width="1.35921"/>
     <circle fill="none" id="connector0pad" stroke="black" r="2.38039" cy="24.3825"  connectorname="1" cx="38.4931" stroke-width="1.35921"/>
     <circle fill="none" id="connector2pad" stroke="black" r="2.38039" cy="10.2093"  connectorname="3" cx="38.4931" stroke-width="1.35921"/>
     <g id="copper0" >
      <circle fill="none" id="connector3pad" stroke="black" r="2.38039" cy="10.2093"  connectorname="4" cx="3.06" stroke-width="1.35921"/>
      <circle fill="none" id="connector1pad" stroke="black" r="2.38039" cy="24.3825"  connectorname="2" cx="3.06" stroke-width="1.35921"/>
      <circle fill="none" id="connector0pad" stroke="black" r="2.38039" cy="24.3825"  connectorname="1" cx="38.4931" stroke-width="1.35921"/>
      <circle fill="none" id="connector2pad" stroke="black" r="2.38039" cy="10.2093"  connectorname="3" cx="38.4931" stroke-width="1.35921"/>
     </g>
    </g>
   </g>
  </g>
 </g>
 <g partID="66481">
  <g transform="translate(88.1284,89.7131)">
   <g transform="matrix(0,1,-1,0,0,0)">
    <g id="copper1" >
     <circle fill="none" id="connector3pad" stroke="black" r="2.38039" cy="10.2093"  connectorname="4" cx="3.06" stroke-width="1.35921"/>
     <circle fill="none" id="connector1pad" stroke="black" r="2.38039" cy="24.3825"  connectorname="2" cx="3.06" stroke-width="1.35921"/>
     <circle fill="none" id="connector0pad" stroke="black" r="2.38039" cy="24.3825"  connectorname="1" cx="38.4931" stroke-width="1.35921"/>
     <circle fill="none" id="connector2pad" stroke="black" r="2.38039" cy="10.2093"  connectorname="3" cx="38.4931" stroke-width="1.35921"/>
     <g id="copper0" >
      <circle fill="none" id="connector3pad" stroke="black" r="2.38039" cy="10.2093"  connectorname="4" cx="3.06" stroke-width="1.35921"/>
      <circle fill="none" id="connector1pad" stroke="black" r="2.38039" cy="24.3825"  connectorname="2" cx="3.06" stroke-width="1.35921"/>
      <circle fill="none" id="connector0pad" stroke="black" r="2.38039" cy="24.3825"  connectorname="1" cx="38.4931" stroke-width="1.35921"/>
      <circle fill="none" id="connector2pad" stroke="black" r="2.38039" cy="10.2093"  connectorname="3" cx="38.4931" stroke-width="1.35921"/>
     </g>
    </g>
   </g>
  </g>
 </g>
 <g partID="66311">
  <g transform="translate(44.7391,89.5002)">
   <g transform="matrix(0,1,-1,0,0,0)">
    <g id="copper1" >
     <circle fill="none" id="connector3pad" stroke="black" r="2.38039" cy="10.2093"  connectorname="4" cx="3.06" stroke-width="1.35921"/>
     <circle fill="none" id="connector1pad" stroke="black" r="2.38039" cy="24.3825"  connectorname="2" cx="3.06" stroke-width="1.35921"/>
     <circle fill="none" id="connector0pad" stroke="black" r="2.38039" cy="24.3825"  connectorname="1" cx="38.4931" stroke-width="1.35921"/>
     <circle fill="none" id="connector2pad" stroke="black" r="2.38039" cy="10.2093"  connectorname="3" cx="38.4931" stroke-width="1.35921"/>
     <g id="copper0" >
      <circle fill="none" id="connector3pad" stroke="black" r="2.38039" cy="10.2093"  connectorname="4" cx="3.06" stroke-width="1.35921"/>
      <circle fill="none" id="connector1pad" stroke="black" r="2.38039" cy="24.3825"  connectorname="2" cx="3.06" stroke-width="1.35921"/>
      <circle fill="none" id="connector0pad" stroke="black" r="2.38039" cy="24.3825"  connectorname="1" cx="38.4931" stroke-width="1.35921"/>
      <circle fill="none" id="connector2pad" stroke="black" r="2.38039" cy="10.2093"  connectorname="3" cx="38.4931" stroke-width="1.35921"/>
     </g>
    </g>
   </g>
  </g>
 </g>
 <g partID="116861">
  <g transform="translate(91.744,65.1998)">
   <g transform="matrix(-1,0,0,-1,0,0)">
    <g id="copper1" >
     <circle fill="none" id="connector0pad" stroke="black" r="2.052" cy="9.06746"  connectorname="1" cx="6.45336" stroke-width="1.224"/>
     <circle fill="none" id="connector1pad" stroke="black" r="2.052" cy="16.7715"  connectorname="2" cx="6.45336" stroke-width="1.224"/>
     <circle fill="none" id="connector2pad" stroke="black" r="2.052" cy="24.4755"  connectorname="3" cx="6.45336" stroke-width="1.224"/>
     <g id="copper0" >
      <circle fill="none" id="connector0pad" stroke="black" r="2.052" cy="9.06746"  connectorname="1" cx="6.45336" stroke-width="1.224"/>
      <circle fill="none" id="connector1pad" stroke="black" r="2.052" cy="16.7715"  connectorname="2" cx="6.45336" stroke-width="1.224"/>
      <circle fill="none" id="connector2pad" stroke="black" r="2.052" cy="24.4755"  connectorname="3" cx="6.45336" stroke-width="1.224"/>
     </g>
    </g>
   </g>
  </g>
 </g>
 <g partID="116731">
  <g transform="translate(77.344,65.1998)">
   <g transform="matrix(-1,0,0,-1,0,0)">
    <g id="copper1" >
     <circle fill="none" id="connector0pad" stroke="black" r="2.052" cy="9.06746"  connectorname="1" cx="6.45336" stroke-width="1.224"/>
     <circle fill="none" id="connector1pad" stroke="black" r="2.052" cy="16.7715"  connectorname="2" cx="6.45336" stroke-width="1.224"/>
     <circle fill="none" id="connector2pad" stroke="black" r="2.052" cy="24.4755"  connectorname="3" cx="6.45336" stroke-width="1.224"/>
     <g id="copper0" >
      <circle fill="none" id="connector0pad" stroke="black" r="2.052" cy="9.06746"  connectorname="1" cx="6.45336" stroke-width="1.224"/>
      <circle fill="none" id="connector1pad" stroke="black" r="2.052" cy="16.7715"  connectorname="2" cx="6.45336" stroke-width="1.224"/>
      <circle fill="none" id="connector2pad" stroke="black" r="2.052" cy="24.4755"  connectorname="3" cx="6.45336" stroke-width="1.224"/>
     </g>
    </g>
   </g>
  </g>
 </g>
 <g partID="116431">
  <g transform="translate(62.944,65.1998)">
   <g transform="matrix(-1,0,0,-1,0,0)">
    <g id="copper1" >
     <circle fill="none" id="connector0pad" stroke="black" r="2.052" cy="9.06746"  connectorname="1" cx="6.45336" stroke-width="1.224"/>
     <circle fill="none" id="connector1pad" stroke="black" r="2.052" cy="16.7715"  connectorname="2" cx="6.45336" stroke-width="1.224"/>
     <circle fill="none" id="connector2pad" stroke="black" r="2.052" cy="24.4755"  connectorname="3" cx="6.45336" stroke-width="1.224"/>
     <g id="copper0" >
      <circle fill="none" id="connector0pad" stroke="black" r="2.052" cy="9.06746"  connectorname="1" cx="6.45336" stroke-width="1.224"/>
      <circle fill="none" id="connector1pad" stroke="black" r="2.052" cy="16.7715"  connectorname="2" cx="6.45336" stroke-width="1.224"/>
      <circle fill="none" id="connector2pad" stroke="black" r="2.052" cy="24.4755"  connectorname="3" cx="6.45336" stroke-width="1.224"/>
     </g>
    </g>
   </g>
  </g>
 </g>
 <g partID="115761">
  <g transform="translate(48.544,65.1998)">
   <g transform="matrix(-1,0,0,-1,0,0)">
    <g id="copper1" >
     <circle fill="none" id="connector0pad" stroke="black" r="2.052" cy="9.06746"  connectorname="1" cx="6.45336" stroke-width="1.224"/>
     <circle fill="none" id="connector1pad" stroke="black" r="2.052" cy="16.7715"  connectorname="2" cx="6.45336" stroke-width="1.224"/>
     <circle fill="none" id="connector2pad" stroke="black" r="2.052" cy="24.4755"  connectorname="3" cx="6.45336" stroke-width="1.224"/>
     <g id="copper0" >
      <circle fill="none" id="connector0pad" stroke="black" r="2.052" cy="9.06746"  connectorname="1" cx="6.45336" stroke-width="1.224"/>
      <circle fill="none" id="connector1pad" stroke="black" r="2.052" cy="16.7715"  connectorname="2" cx="6.45336" stroke-width="1.224"/>
      <circle fill="none" id="connector2pad" stroke="black" r="2.052" cy="24.4755"  connectorname="3" cx="6.45336" stroke-width="1.224"/>
     </g>
    </g>
   </g>
  </g>
 </g>
 <g partID="115101">
  <g transform="translate(34.144,65.1998)">
   <g transform="matrix(-1,0,0,-1,0,0)">
    <g id="copper1" >
     <circle fill="none" id="connector0pad" stroke="black" r="2.052" cy="9.06746"  connectorname="1" cx="6.45336" stroke-width="1.224"/>
     <circle fill="none" id="connector1pad" stroke="black" r="2.052" cy="16.7715"  connectorname="2" cx="6.45336" stroke-width="1.224"/>
     <circle fill="none" id="connector2pad" stroke="black" r="2.052" cy="24.4755"  connectorname="3" cx="6.45336" stroke-width="1.224"/>
     <g id="copper0" >
      <circle fill="none" id="connector0pad" stroke="black" r="2.052" cy="9.06746"  connectorname="1" cx="6.45336" stroke-width="1.224"/>
      <circle fill="none" id="connector1pad" stroke="black" r="2.052" cy="16.7715"  connectorname="2" cx="6.45336" stroke-width="1.224"/>
      <circle fill="none" id="connector2pad" stroke="black" r="2.052" cy="24.4755"  connectorname="3" cx="6.45336" stroke-width="1.224"/>
     </g>
    </g>
   </g>
  </g>
 </g>
 <g partID="128981">
  <g transform="translate(2.20269,15.9563)">
   <g id="copper1" >
    <circle fill="none" id="connector0pad" stroke="black" r="1.962" cy="3.6"  connectorname="1" cx="3.888" stroke-width="1.404"/>
    <circle fill="none" id="connector1pad" stroke="black" r="1.962" cy="4.176"  connectorname="2" cx="11.088" stroke-width="1.404"/>
    <circle fill="none" id="connector2pad" stroke="black" r="1.962" cy="3.6"  connectorname="3" cx="18.288" stroke-width="1.404"/>
    <circle fill="none" id="connector3pad" stroke="black" r="1.962" cy="4.176"  connectorname="4" cx="25.488" stroke-width="1.404"/>
    <circle fill="none" id="connector4pad" stroke="black" r="1.962" cy="3.6"  connectorname="5" cx="32.688" stroke-width="1.404"/>
    <circle fill="none" id="connector5pad" stroke="black" r="1.962" cy="4.176"  connectorname="6" cx="39.888" stroke-width="1.404"/>
    <circle fill="none" id="connector6pad" stroke="black" r="1.962" cy="3.6"  connectorname="7" cx="47.088" stroke-width="1.404"/>
    <circle fill="none" id="connector7pad" stroke="black" r="1.962" cy="4.176"  connectorname="8" cx="54.288" stroke-width="1.404"/>
    <circle fill="none" id="connector8pad" stroke="black" r="1.962" cy="3.6"  connectorname="9" cx="61.488" stroke-width="1.404"/>
    <circle fill="none" id="connector9pad" stroke="black" r="1.962" cy="4.176"  connectorname="10" cx="68.688" stroke-width="1.404"/>
    <circle fill="none" id="connector10pad" stroke="black" r="1.962" cy="3.6"  connectorname="11" cx="75.888" stroke-width="1.404"/>
    <circle fill="none" id="connector11pad" stroke="black" r="1.962" cy="4.176"  connectorname="12" cx="83.088" stroke-width="1.404"/>
    <g id="copper0" >
     <circle fill="none" id="connector0pad" stroke="black" r="1.962" cy="3.6"  connectorname="1" cx="3.888" stroke-width="1.404"/>
     <circle fill="none" id="connector1pad" stroke="black" r="1.962" cy="4.176"  connectorname="2" cx="11.088" stroke-width="1.404"/>
     <circle fill="none" id="connector2pad" stroke="black" r="1.962" cy="3.6"  connectorname="3" cx="18.288" stroke-width="1.404"/>
     <circle fill="none" id="connector3pad" stroke="black" r="1.962" cy="4.176"  connectorname="4" cx="25.488" stroke-width="1.404"/>
     <circle fill="none" id="connector4pad" stroke="black" r="1.962" cy="3.6"  connectorname="5" cx="32.688" stroke-width="1.404"/>
     <circle fill="none" id="connector5pad" stroke="black" r="1.962" cy="4.176"  connectorname="6" cx="39.888" stroke-width="1.404"/>
     <circle fill="none" id="connector6pad" stroke="black" r="1.962" cy="3.6"  connectorname="7" cx="47.088" stroke-width="1.404"/>
     <circle fill="none" id="connector7pad" stroke="black" r="1.962" cy="4.176"  connectorname="8" cx="54.288" stroke-width="1.404"/>
     <circle fill="none" id="connector8pad" stroke="black" r="1.962" cy="3.6"  connectorname="9" cx="61.488" stroke-width="1.404"/>
     <circle fill="none" id="connector9pad" stroke="black" r="1.962" cy="4.176"  connectorname="10" cx="68.688" stroke-width="1.404"/>
     <circle fill="none" id="connector10pad" stroke="black" r="1.962" cy="3.6"  connectorname="11" cx="75.888" stroke-width="1.404"/>
     <circle fill="none" id="connector11pad" stroke="black" r="1.962" cy="4.176"  connectorname="12" cx="83.088" stroke-width="1.404"/>
    </g>
   </g>
  </g>
 </g>
 <g partID="142321">
  <g transform="translate(43.1552,129.197)">
   <g id="copper1" >
    <circle fill="black" stroke="black" id="nonconn0" r="4.53543" cy="6.13543"  cx="6.13543" stroke-width="0"/>
   </g>
  </g>
 </g>
 <g partID="142351">
  <g transform="translate(43.1552,229.997)">
   <g id="copper1" >
    <circle fill="black" stroke="black" id="nonconn0" r="4.53543" cy="6.13543"  cx="6.13543" stroke-width="0"/>
   </g>
  </g>
 </g>
 <g partID="95540">
  <line stroke="black" x1="62.0451" x2="36.2306" y1="279.394" stroke-linecap="round" y2="279.206" stroke-width="1.728"/>
 </g>
 <g partID="97880">
  <line stroke="black" x1="41.9006" x2="35.7542" y1="272.086" stroke-linecap="round" y2="278.013" stroke-width="1.728"/>
 </g>
 <g partID="97510">
  <line stroke="black" x1="41.9006" x2="41.9006" y1="243.186" stroke-linecap="round" y2="272.086" stroke-width="1.728"/>
 </g>
 <g partID="97140">
  <line stroke="black" x1="35.3051" x2="41.9006" y1="230.307" stroke-linecap="round" y2="243.186" stroke-width="1.728"/>
 </g>
 <g partID="99110">
  <line stroke="black" x1="41.9006" x2="41.9006" y1="192.737" stroke-linecap="round" y2="221.637" stroke-width="1.728"/>
 </g>
 <g partID="98760">
  <line stroke="black" x1="41.9006" x2="35.7501" y1="221.637" stroke-linecap="round" y2="227.609" stroke-width="1.728"/>
 </g>
 <g partID="98410">
  <line stroke="black" x1="35.3072" x2="41.9006" y1="179.906" stroke-linecap="round" y2="192.737" stroke-width="1.728"/>
 </g>
 <g partID="100120">
  <line stroke="black" x1="41.9006" x2="41.9006" y1="142.289" stroke-linecap="round" y2="171.189" stroke-width="1.728"/>
 </g>
 <g partID="99790">
  <line stroke="black" x1="41.9006" x2="35.7461" y1="171.189" stroke-linecap="round" y2="177.204" stroke-width="1.728"/>
 </g>
 <g partID="99460">
  <line stroke="black" x1="35.3093" x2="41.9006" y1="129.505" stroke-linecap="round" y2="142.289" stroke-width="1.728"/>
 </g>
 <g partID="101770">
  <line stroke="black" x1="56.3566" x2="56.3566" y1="243.188" stroke-linecap="round" y2="272.187" stroke-width="1.728"/>
 </g>
 <g partID="101480">
  <line stroke="black" x1="56.3566" x2="62.5293" y1="272.187" stroke-linecap="round" y2="278.218" stroke-width="1.728"/>
 </g>
 <g partID="101190">
  <line stroke="black" x1="62.96" x2="56.3566" y1="230.514" stroke-linecap="round" y2="243.188" stroke-width="1.728"/>
 </g>
 <g partID="102600">
  <line stroke="black" x1="56.3566" x2="56.3566" y1="192.903" stroke-linecap="round" y2="221.593" stroke-width="1.728"/>
 </g>
 <g partID="102330">
  <line stroke="black" x1="56.3566" x2="62.5452" y1="221.593" stroke-linecap="round" y2="227.802" stroke-width="1.728"/>
 </g>
 <g partID="102060">
  <line stroke="black" x1="62.965" x2="56.3566" y1="180.117" stroke-linecap="round" y2="192.903" stroke-width="1.728"/>
 </g>
 <g partID="103370">
  <line stroke="black" x1="56.3566" x2="56.3566" y1="142.617" stroke-linecap="round" y2="171.308" stroke-width="1.728"/>
 </g>
 <g partID="103120">
  <line stroke="black" x1="56.3566" x2="62.5358" y1="171.308" stroke-linecap="round" y2="177.411" stroke-width="1.728"/>
 </g>
 <g partID="102870">
  <line stroke="black" x1="62.9699" x2="56.3566" y1="129.72" stroke-linecap="round" y2="142.617" stroke-width="1.728"/>
 </g>
 <g partID="103620">
  <line stroke="black" x1="55.286" x2="43.2165" y1="77.7878" stroke-linecap="round" y2="77.6117" stroke-width="1.728"/>
 </g>
 <g partID="106230">
  <line stroke="black" x1="92.0938" x2="85.7428" y1="98.1364" stroke-linecap="round" y2="79.002" stroke-width="1.728"/>
 </g>
 <g partID="105620">
  <line stroke="black" x1="78.8725" x2="91.7844" y1="129.615" stroke-linecap="round" y2="148.689" stroke-width="1.728"/>
 </g>
 <g partID="105700">
  <line stroke="black" x1="79.6199" x2="91.2307" y1="128.198" stroke-linecap="round" y2="128.139" stroke-width="1.728"/>
 </g>
 <g partID="106650">
  <line stroke="black" x1="18.6558" x2="7.21659" y1="228.793" stroke-linecap="round" y2="228.793" stroke-width="1.728"/>
 </g>
 <g partID="105440">
  <line stroke="black" x1="79.6199" x2="91.2307" y1="178.598" stroke-linecap="round" y2="178.539" stroke-width="1.728"/>
 </g>
 <g partID="107330">
  <line stroke="black" x1="6.35504" x2="12.7581" y1="97.9979" stroke-linecap="round" y2="78.7886" stroke-width="1.728"/>
 </g>
 <g partID="106350">
  <line stroke="black" x1="18.6558" x2="7.21659" y1="279.193" stroke-linecap="round" y2="279.193" stroke-width="1.728"/>
 </g>
 <g partID="107250">
  <line stroke="black" x1="18.6558" x2="7.21659" y1="127.993" stroke-linecap="round" y2="127.993" stroke-width="1.728"/>
 </g>
 <g partID="105140">
  <line stroke="black" x1="78.8725" x2="91.7844" y1="180.015" stroke-linecap="round" y2="199.089" stroke-width="1.728"/>
 </g>
 <g partID="106950">
  <line stroke="black" x1="18.6558" x2="7.21659" y1="178.393" stroke-linecap="round" y2="178.393" stroke-width="1.728"/>
 </g>
 <g partID="106850">
  <line stroke="black" x1="19.4132" x2="6.65552" y1="179.808" stroke-linecap="round" y2="198.945" stroke-width="1.728"/>
 </g>
 <g partID="107070">
  <line stroke="black" x1="19.4132" x2="6.65552" y1="129.408" stroke-linecap="round" y2="148.545" stroke-width="1.728"/>
 </g>
 <g partID="105080">
  <line stroke="black" x1="91.2307" x2="79.6199" y1="279.339" stroke-linecap="round" y2="279.398" stroke-width="1.728"/>
 </g>
 <g partID="106570">
  <line stroke="black" x1="19.4132" x2="6.65552" y1="230.208" stroke-linecap="round" y2="249.345" stroke-width="1.728"/>
 </g>
 <g partID="104250">
  <line stroke="black" x1="78.8725" x2="91.7844" y1="230.415" stroke-linecap="round" y2="249.489" stroke-width="1.728"/>
 </g>
 <g partID="104470">
  <line stroke="black" x1="79.6199" x2="91.2307" y1="228.998" stroke-linecap="round" y2="228.939" stroke-width="1.728"/>
 </g>
 <g partID="120350">
  <line stroke="black" x1="40.6533" x2="34.8789" y1="48.515" stroke-linecap="round" y2="48.8635" stroke-width="1.728"/>
 </g>
 <g partID="135840">
  <line stroke="black" x1="34.8789" x2="28.7032" y1="48.8635" stroke-linecap="round" y2="55.1084" stroke-width="1.728"/>
 </g>
 <g partID="120670">
  <line stroke="black" x1="69.4541" x2="63.7639" y1="48.5279" stroke-linecap="round" y2="48.9223" stroke-width="1.728"/>
 </g>
 <g partID="136250">
  <line stroke="black" x1="63.7639" x2="57.5134" y1="48.9223" stroke-linecap="round" y2="55.1185" stroke-width="1.728"/>
 </g>
 <g partID="120910">
  <line stroke="black" x1="72.3307" x2="83.8507" y1="48.4283" stroke-linecap="round" y2="48.4283" stroke-width="1.728"/>
 </g>
 <g partID="132980">
  <line stroke="black" x1="85.3254" x2="85.2287" y1="76.5463" stroke-linecap="round" y2="70.6092" stroke-width="1.728"/>
 </g>
 <g partID="133110">
  <line stroke="black" x1="13.4211" x2="13.2939" y1="70.6092" stroke-linecap="round" y2="21.3923" stroke-width="1.728"/>
 </g>
 <g partID="139380">
  <line stroke="black" x1="85.2287" x2="13.4211" y1="70.6092" stroke-linecap="round" y2="70.6092" stroke-width="1.728"/>
 </g>
 <g partID="135970">
  <line stroke="black" x1="49.3373" x2="55.0541" y1="48.9223" stroke-linecap="round" y2="48.5275" stroke-width="1.728"/>
 </g>
 <g partID="135800">
  <line stroke="black" x1="43.1115" x2="49.3373" y1="55.1166" stroke-linecap="round" y2="48.9223" stroke-width="1.728"/>
 </g>
 <g partID="136940">
  <line stroke="black" x1="42.0411" x2="42.0821" y1="27.3653" stroke-linecap="round" y2="21.3923" stroke-width="1.728"/>
 </g>
 <g partID="135880">
  <line stroke="black" x1="34.8789" x2="42.0411" y1="48.8635" stroke-linecap="round" y2="27.3653" stroke-width="1.728"/>
 </g>
 <g partID="136100">
  <line stroke="black" x1="49.3373" x2="49.2946" y1="34.4957" stroke-linecap="round" y2="20.8163" stroke-width="1.728"/>
 </g>
 <g partID="136010">
  <line stroke="black" x1="49.3373" x2="49.3373" y1="48.9223" stroke-linecap="round" y2="34.4957" stroke-width="1.728"/>
 </g>
 <g partID="136530">
  <line stroke="black" x1="56.4677" x2="56.4887" y1="34.4957" stroke-linecap="round" y2="21.3923" stroke-width="1.728"/>
 </g>
 <g partID="136310">
  <line stroke="black" x1="63.7639" x2="63.7639" y1="48.9223" stroke-linecap="round" y2="41.7919" stroke-width="1.728"/>
 </g>
 <g partID="136420">
  <line stroke="black" x1="63.7639" x2="56.4677" y1="41.7919" stroke-linecap="round" y2="34.4957" stroke-width="1.728"/>
 </g>
 <g partID="139630">
  <line stroke="black" x1="11.8971" x2="6.24028" y1="77.6291" stroke-linecap="round" y2="77.79" stroke-width="1.728"/>
 </g>
 <g partID="139690">
  <line stroke="black" x1="6.24028" x2="6.09392" y1="77.79" stroke-linecap="round" y2="20.8163" stroke-width="1.728"/>
 </g>
</svg>
